<?xml version="1.0" encoding="UTF-8" standalone="no"?>
<!-- Created with Inkscape (http://www.inkscape.org/) -->

<svg
   xmlns:dc="http://purl.org/dc/elements/1.1/"
   xmlns:cc="http://creativecommons.org/ns#"
   xmlns:rdf="http://www.w3.org/1999/02/22-rdf-syntax-ns#"
   xmlns:svg="http://www.w3.org/2000/svg"
   xmlns="http://www.w3.org/2000/svg"
   xmlns:sodipodi="http://sodipodi.sourceforge.net/DTD/sodipodi-0.dtd"
   xmlns:inkscape="http://www.inkscape.org/namespaces/inkscape"
   width="210mm"
   height="297mm"
   viewBox="0 0 210 297"
   version="1.1"
   id="svg8"
   inkscape:version="0.92.4 (5da689c313, 2019-01-14)"
   sodipodi:docname="drawing.svg">
  <defs
     id="defs2" />
  <sodipodi:namedview
     id="base"
     pagecolor="#ffffff"
     bordercolor="#666666"
     borderopacity="1.0"
     inkscape:pageopacity="0.0"
     inkscape:pageshadow="2"
     inkscape:zoom="5.6"
     inkscape:cx="608.59012"
     inkscape:cy="648.39216"
     inkscape:document-units="mm"
     inkscape:current-layer="layer1"
     showgrid="false"
     inkscape:window-width="1920"
     inkscape:window-height="1057"
     inkscape:window-x="-8"
     inkscape:window-y="-8"
     inkscape:window-maximized="1" />
  <metadata
     id="metadata5">
    <rdf:RDF>
      <cc:Work
         rdf:about="">
        <dc:format>image/svg+xml</dc:format>
        <dc:type
           rdf:resource="http://purl.org/dc/dcmitype/StillImage" />
        <dc:title></dc:title>
      </cc:Work>
    </rdf:RDF>
  </metadata>
  <g
     inkscape:label="Layer 1"
     inkscape:groupmode="layer"
     id="layer1">
    <g
       id="g38"
       transform="matrix(0.2380521,0,0,0.26364955,-11.297866,33.346539)">
      <g
         style="display:inline;opacity:0.3"
         transform="translate(0,-287.36221)"
         id="layer1-1"
         inkscape:label="Source">
        <path
           inkscape:connector-curvature="0"
           id="path298"
           d="M 254.30028,333.54706 111.42401,442.06148 h 36.38373 V 602.92919 H 203.8674 V 499.54178 h 100.8683 v 103.38741 h 56.05964 V 442.06148 h 36.3812 z"
           style="display:inline;fill:#ffd52d;fill-opacity:1;fill-rule:evenodd;stroke:none" />
        <path
           sodipodi:nodetypes="cccsszcc"
           d="m 743.86885,446.79393 c 64.67465,-17.13494 97.16626,31.64303 100.2332,67.48379 24.61223,-0.0312 43.78859,15.29529 44.74871,41.12944 0,22.80034 -18.47863,41.27316 -41.27965,41.27316 H 556.42712 c -38.26218,0 -66.02551,-25.22366 -66.92846,-66.9313 -0.90295,-41.70764 51.1977,-80.10067 94.4021,-61.04365 21.12967,-93.11269 128.49585,-91.44611 159.96809,-21.91144 z"
           style="display:inline;fill:#3fe8ed;fill-opacity:1;fill-rule:evenodd;stroke:none"
           id="path266"
           inkscape:connector-curvature="0" />
        <path
           style="fill:#000000;fill-opacity:1;fill-rule:nonzero;stroke:none"
           d="m 801.83216,845.96701 c 0.69492,-32.90897 -17.91304,-62.12378 -39.31774,-85.57258 -16.45363,-20.94247 -42.22116,-49.20938 -46.24705,-76.59376 -1.44507,-9.82947 -2.77575,-16.52527 -7.49046,-16.53793 -5.66264,-0.0146 -4.14766,11.96296 -4.09899,18.04186 v 258.54726 c -25.88198,-17.36888 -61.6872,-6.30392 -81.94603,14.79087 -14.30222,13.86848 -22.67441,39.74942 -7.88701,56.12897 17.60516,16.6031 45.49993,11.4021 65.00606,1.291 20.40887,-10.1948 35.84907,-31.84774 33.59277,-55.27669 V 763.78718 c 31.88237,0.78487 55.33405,27.59256 69.41966,53.67491 15.3121,31.55171 4.79517,67.90252 -8.84999,98.00406 -2.86704,6.66451 -3.88055,22.5959 -0.91759,16.93608 13.82226,-27.00501 28.58088,-55.22195 28.73637,-86.43522 z"
           id="path5533"
           inkscape:connector-curvature="0"
           sodipodi:nodetypes="ccssccccccccccc" />
        <path
           style="fill:#00ff00"
           d="M 287.11138,931.40489 C 371.53694,924.68425 448.7664,893.59972 512.77304,845.60437 356.45085,841.22246 323.77289,703.7386 206.63083,710.44639 c -28.75866,0 -57.02901,14.14802 -76.754,36.39165 15.31739,28.52735 92.7653,158.82798 221.0356,134.93953 -139.16723,33.62887 -226.61257,-60.0488 -246.77447,-84.84961 -1.61912,7.41454 -2.55719,15.29169 -2.55719,23.18169 0,111.52654 102.27443,117.78457 185.53061,111.29524 v 0"
           id="path292-8"
           inkscape:connector-curvature="0" />
      </g>
      <g
         style="display:inline"
         inkscape:label="Drawing"
         id="layer2" />
    </g>
    <path
       style="fill:none;stroke:#000000;stroke-width:0.26458332px;stroke-linecap:butt;stroke-linejoin:miter;stroke-opacity:1"
       d="M 37.233195,116.54563 V 89.287587 H 61.245106 V 116.54563 H 74.590221 V 74.132931 h 8.660622 L 49.238849,45.523152 15.226853,74.132931 h 8.661224 v 42.412699 z"
       id="path40"
       inkscape:connector-curvature="0" />
    <path
       style="fill:none;stroke:#000000;stroke-width:0.26458332px;stroke-linecap:butt;stroke-linejoin:miter;stroke-opacity:1"
       d="m 120.3381,114.98945 c -11.70826,-1.23196 -14.84908,-10.15491 -15.10072,-17.639789 -0.0946,-6.492252 7.83431,-22.082951 22.46356,-16.192079 0.84531,-15.822395 26.39545,-30.685929 38.08073,-5.776942 6.28239,-2.312446 20.33408,-2.287418 23.86073,17.79207 1.92874,0.506525 10.04134,0.268135 10.6427,10.82528 0.23584,4.73793 -3.18299,10.8873 -10.85864,10.89697 0,0 -47.20542,0.48428 -69.08836,0.0945 z"
       id="path52"
       inkscape:connector-curvature="0"
       sodipodi:nodetypes="ccccccccc" />
    <path
       style="fill:none;stroke:#000000;stroke-width:0.26458332px;stroke-linecap:butt;stroke-linejoin:miter;stroke-opacity:1"
       d="m 110.76883,180.52683 c 0,0 -20.243533,1.6629 -43.48907,-22.0551 -23.245535,-23.71801 -42.876154,-10.8985 -47.660174,-3.9846 0,0 17.60482,41.46652 52.617989,35.57675 0,0 -34.102489,11.41948 -58.745181,-22.37056 0,0 -7.5392691,29.89894 24.210731,35.47409 0,0 41.620997,5.08417 73.065705,-22.64058 z"
       id="path56"
       inkscape:connector-curvature="0" />
    <path
       style="fill:none;stroke:#000000;stroke-width:0.26458332px;stroke-linecap:butt;stroke-linejoin:miter;stroke-opacity:1"
       d="m 156.45219,206.42974 c -5.73378,-6.94531 -29.80219,2.03451 -21.38494,18.69798 3.92822,7.77663 23.47166,0.0217 23.47166,-14.2333 0,-9.15002 0.42376,-32.58082 0,-51.93865 1.98051,0.17945 8.93886,-0.43479 16.52263,14.29844 1.58963,5.94481 4.51842,7.36823 -2.40543,26.1924 -0.66751,2.79656 -0.4277,3.77247 -0.26727,4.14269 0.74381,-0.0547 7.96777,-15.19772 7.19112,-22.96686 -0.46723,-8.17131 -1.05301,-9.59179 -6.15544,-18.29288 -5.27658,-6.78463 -12.8644,-16.94701 -13.88083,-22.57853 -1.27087,-9.2682 -3.04199,-6.38855 -3.18267,-4.42404 -0.15001,0.67506 -23.60677,71.10275 0.0911,71.10275 z"
       id="path58"
       inkscape:connector-curvature="0"
       sodipodi:nodetypes="ccccccccccccc" />
  </g>
</svg>
