<?xml version="1.0" encoding="UTF-8" standalone="no"?>
<!-- Created with Inkscape (http://www.inkscape.org/) -->

<svg
   xmlns:dc="http://purl.org/dc/elements/1.1/"
   xmlns:cc="http://creativecommons.org/ns#"
   xmlns:rdf="http://www.w3.org/1999/02/22-rdf-syntax-ns#"
   xmlns:svg="http://www.w3.org/2000/svg"
   xmlns="http://www.w3.org/2000/svg"
   xmlns:sodipodi="http://sodipodi.sourceforge.net/DTD/sodipodi-0.dtd"
   xmlns:inkscape="http://www.inkscape.org/namespaces/inkscape"
   width="210mm"
   height="297mm"
   viewBox="0 0 210 297"
   version="1.1"
   id="svg8"
   inkscape:version="0.92.4 (5da689c313, 2019-01-14)"
   sodipodi:docname="laserboxfinal.svg">
  <defs
     id="defs2" />
  <sodipodi:namedview
     id="base"
     pagecolor="#ffffff"
     bordercolor="#666666"
     borderopacity="1.0"
     inkscape:pageopacity="0.0"
     inkscape:pageshadow="2"
     inkscape:zoom="2.4472656"
     inkscape:cx="242.91197"
     inkscape:cy="180.88423"
     inkscape:document-units="mm"
     inkscape:current-layer="layer1"
     showgrid="false"
     inkscape:window-width="1920"
     inkscape:window-height="1057"
     inkscape:window-x="-8"
     inkscape:window-y="-8"
     inkscape:window-maximized="1" />
  <metadata
     id="metadata5">
    <rdf:RDF>
      <cc:Work
         rdf:about="">
        <dc:format>image/svg+xml</dc:format>
        <dc:type
           rdf:resource="http://purl.org/dc/dcmitype/StillImage" />
        <dc:title></dc:title>
      </cc:Work>
    </rdf:RDF>
  </metadata>
  <g
     inkscape:label="Layer 1"
     inkscape:groupmode="layer"
     id="layer1">
    <g
       id="g5167">
      <path
         d="M 53.9999997616,184.699999452 L 64.8579409252,184.699999452 L 64.8579409252,181.599999547 L 76.0008820937,181.599999547 L 76.0008820937,184.699999452 L 86.7638232557,184.699999452 L 86.7638232557,181.599999547 L 97.9067644242,181.599999547 L 97.9067644242,184.699999452 L 108.669705586,184.699999452 L 108.669705586,181.599999547 L 119.812646755,181.599999547 L 119.812646755,184.699999452 L 130.575587917,184.699999452 L 130.575587917,181.599999547 L 141.718529085,181.599999547 L 141.718529085,184.699999452 L 152.481470247,184.699999452 L 152.481470247,181.599999547 L 163.624411416,181.599999547 L 163.624411416,184.699999452 L 174.387352578,184.699999452 L 174.387352578,181.599999547 L 185.530293746,181.599999547 L 185.530293746,184.699999452 L 196.293234908,184.699999452 L 196.293234908,181.599999547 L 207.436176077,181.599999547 L 207.436176077,184.699999452 L 218.199117239,184.699999452 L 218.199117239,181.599999547 L 229.342058407,181.599999547 L 229.342058407,184.699999452 L 240.199999571,184.699999452 "
         style="stroke:#000000;stroke-width:1;fill:none"
         inkscape:label="part"
         id="path5056" />
      <path
         d="M 240.199999571,184.699999452 L 240.199999571,191.93499951 L 237.099999666,191.93499951 L 237.099999666,201.984999469 L 240.199999571,201.984999469 L 240.199999571,212.414999434 L 237.099999666,212.414999434 L 237.099999666,222.464999393 L 240.199999571,222.464999393 L 240.199999571,229.699999452 "
         style="stroke:#000000;stroke-width:1;fill:none"
         inkscape:label="part"
         id="path5058" />
      <path
         d="M 240.199999571,229.699999452 L 229.342058407,229.699999452 L 229.342058407,232.799999356 L 218.199117239,232.799999356 L 218.199117239,229.699999452 L 207.436176077,229.699999452 L 207.436176077,232.799999356 L 196.293234908,232.799999356 L 196.293234908,229.699999452 L 185.530293746,229.699999452 L 185.530293746,232.799999356 L 174.387352578,232.799999356 L 174.387352578,229.699999452 L 163.624411416,229.699999452 L 163.624411416,232.799999356 L 152.481470247,232.799999356 L 152.481470247,229.699999452 L 141.718529085,229.699999452 L 141.718529085,232.799999356 L 130.575587917,232.799999356 L 130.575587917,229.699999452 L 119.812646755,229.699999452 L 119.812646755,232.799999356 L 108.669705586,232.799999356 L 108.669705586,229.699999452 L 97.9067644242,229.699999452 L 97.9067644242,232.799999356 L 86.7638232557,232.799999356 L 86.7638232557,229.699999452 L 76.0008820937,229.699999452 L 76.0008820937,232.799999356 L 64.8579409252,232.799999356 L 64.8579409252,229.699999452 L 53.9999997616,229.699999452 "
         style="stroke:#000000;stroke-width:1;fill:none"
         inkscape:label="part"
         id="path5060" />
      <path
         d="M 53.9999997616,229.699999452 L 53.9999997616,222.464999393 L 57.0999996662,222.464999393 L 57.0999996662,212.414999434 L 53.9999997616,212.414999434 L 53.9999997616,201.984999469 L 57.0999996662,201.984999469 L 57.0999996662,191.93499951 L 53.9999997616,191.93499951 L 53.9999997616,184.699999452 "
         style="stroke:#000000;stroke-width:1;fill:none"
         inkscape:label="part"
         id="path5062" />
    </g>
    <g
       id="g5161">
      <path
         d="M 4.49999988079,57.0999996662 L 11.5449999364,57.0999996662 L 11.5449999364,53.9999997616 L 21.9749999015,53.9999997616 L 21.9749999015,57.0999996662 L 32.0249998601,57.0999996662 L 32.0249998601,53.9999997616 L 42.4549998252,53.9999997616 L 42.4549998252,57.0999996662 L 49.4999998808,57.0999996662 "
         style="stroke:#000000;stroke-width:1;fill:none"
         inkscape:label="part"
         id="path5064" />
      <path
         d="M 49.4999998808,57.0999996662 L 49.4999998808,65.3777270154 L 52.5999997854,65.3777270154 L 52.5999997854,77.040454274 L 49.4999998808,77.040454274 L 49.4999998808,88.3231815261 L 52.5999997854,88.3231815261 L 52.5999997854,99.9859087847 L 49.4999998808,99.9859087847 L 49.4999998808,111.268636037 L 52.5999997854,111.268636037 L 52.5999997854,122.931363296 L 49.4999998808,122.931363296 L 49.4999998808,134.214090548 L 52.5999997854,134.214090548 L 52.5999997854,145.876817806 L 49.4999998808,145.876817806 L 49.4999998808,157.159545058 L 52.5999997854,157.159545058 L 52.5999997854,168.822272317 L 49.4999998808,168.822272317 L 49.4999998808,177.099999666 "
         style="stroke:#000000;stroke-width:1;fill:none"
         inkscape:label="part"
         id="path5066" />
      <path
         d="M 49.4999998808,177.099999666 L 42.4549998252,177.099999666 L 42.4549998252,180.199999571 L 32.0249998601,180.199999571 L 32.0249998601,177.099999666 L 21.9749999015,177.099999666 L 21.9749999015,180.199999571 L 11.5449999364,180.199999571 L 11.5449999364,177.099999666 L 4.49999988079,177.099999666 "
         style="stroke:#000000;stroke-width:1;fill:none"
         inkscape:label="part"
         id="path5068" />
      <path
         d="M 4.49999988079,177.099999666 L 4.49999988079,168.822272317 L 1.39999997616,168.822272317 L 1.39999997616,157.159545058 L 4.49999988079,157.159545058 L 4.49999988079,145.876817806 L 1.39999997616,145.876817806 L 1.39999997616,134.214090548 L 4.49999988079,134.214090548 L 4.49999988079,122.931363296 L 1.39999997616,122.931363296 L 1.39999997616,111.268636037 L 4.49999988079,111.268636037 L 4.49999988079,99.9859087847 L 1.39999997616,99.9859087847 L 1.39999997616,88.3231815261 L 4.49999988079,88.3231815261 L 4.49999988079,77.040454274 L 1.39999997616,77.040454274 L 1.39999997616,65.3777270154 L 4.49999988079,65.3777270154 L 4.49999988079,57.0999996662 "
         style="stroke:#000000;stroke-width:1;fill:none"
         inkscape:label="part"
         id="path5070" />
    </g>
    <g
       id="g5149">
      <path
         d="M 53.9999997616,53.9999997616 L 65.0479409284,53.9999997616 L 65.0479409284,57.0999996662 L 75.8108820905,57.0999996662 L 75.8108820905,53.9999997616 L 86.9538232589,53.9999997616 L 86.9538232589,57.0999996662 L 97.716764421,57.0999996662 L 97.716764421,53.9999997616 L 108.859705589,53.9999997616 L 108.859705589,57.0999996662 L 119.622646751,57.0999996662 L 119.622646751,53.9999997616 L 130.76558792,53.9999997616 L 130.76558792,57.0999996662 L 141.528529082,57.0999996662 L 141.528529082,53.9999997616 L 152.67147025,53.9999997616 L 152.67147025,57.0999996662 L 163.434411412,57.0999996662 L 163.434411412,53.9999997616 L 174.577352581,53.9999997616 L 174.577352581,57.0999996662 L 185.340293743,57.0999996662 L 185.340293743,53.9999997616 L 196.483234911,53.9999997616 L 196.483234911,57.0999996662 L 207.246176073,57.0999996662 L 207.246176073,53.9999997616 L 218.389117242,53.9999997616 L 218.389117242,57.0999996662 L 229.152058404,57.0999996662 L 229.152058404,53.9999997616 L 240.199999571,53.9999997616 "
         style="stroke:#000000;stroke-width:1;fill:none"
         inkscape:label="part"
         id="path5072" />
      <path
         d="M 240.199999571,53.9999997616 L 240.199999571,65.5677270186 L 237.099999666,65.5677270186 L 237.099999666,76.8504542708 L 240.199999571,76.8504542708 L 240.199999571,88.5131815293 L 237.099999666,88.5131815293 L 237.099999666,99.7959087815 L 240.199999571,99.7959087815 L 240.199999571,111.45863604 L 237.099999666,111.45863604 L 237.099999666,122.741363292 L 240.199999571,122.741363292 L 240.199999571,134.404090551 L 237.099999666,134.404090551 L 237.099999666,145.686817803 L 240.199999571,145.686817803 L 240.199999571,157.349545062 L 237.099999666,157.349545062 L 237.099999666,168.632272314 L 240.199999571,168.632272314 L 240.199999571,180.199999571 "
         style="stroke:#000000;stroke-width:1;fill:none"
         inkscape:label="part"
         id="path5074" />
      <path
         d="M 240.199999571,180.199999571 L 229.152058404,180.199999571 L 229.152058404,177.099999666 L 218.389117242,177.099999666 L 218.389117242,180.199999571 L 207.246176073,180.199999571 L 207.246176073,177.099999666 L 196.483234911,177.099999666 L 196.483234911,180.199999571 L 185.340293743,180.199999571 L 185.340293743,177.099999666 L 174.577352581,177.099999666 L 174.577352581,180.199999571 L 163.434411412,180.199999571 L 163.434411412,177.099999666 L 152.67147025,177.099999666 L 152.67147025,180.199999571 L 141.528529082,180.199999571 L 141.528529082,177.099999666 L 130.76558792,177.099999666 L 130.76558792,180.199999571 L 119.622646751,180.199999571 L 119.622646751,177.099999666 L 108.859705589,177.099999666 L 108.859705589,180.199999571 L 97.716764421,180.199999571 L 97.716764421,177.099999666 L 86.9538232589,177.099999666 L 86.9538232589,180.199999571 L 75.8108820905,180.199999571 L 75.8108820905,177.099999666 L 65.0479409284,177.099999666 L 65.0479409284,180.199999571 L 53.9999997616,180.199999571 "
         style="stroke:#000000;stroke-width:1;fill:none"
         inkscape:label="part"
         id="path5076" />
      <path
         d="M 53.9999997616,180.199999571 L 53.9999997616,168.632272314 L 57.0999996662,168.632272314 L 57.0999996662,157.349545062 L 53.9999997616,157.349545062 L 53.9999997616,145.686817803 L 57.0999996662,145.686817803 L 57.0999996662,134.404090551 L 53.9999997616,134.404090551 L 53.9999997616,122.741363292 L 57.0999996662,122.741363292 L 57.0999996662,111.45863604 L 53.9999997616,111.45863604 L 53.9999997616,99.7959087815 L 57.0999996662,99.7959087815 L 57.0999996662,88.5131815293 L 53.9999997616,88.5131815293 L 53.9999997616,76.8504542708 L 57.0999996662,76.8504542708 L 57.0999996662,65.5677270186 L 53.9999997616,65.5677270186 L 53.9999997616,53.9999997616 "
         style="stroke:#000000;stroke-width:1;fill:none"
         inkscape:label="part"
         id="path5078" />
    </g>
    <g
       id="g5143">
      <path
         d="M 244.699999452,57.0999996662 L 251.744999507,57.0999996662 L 251.744999507,53.9999997616 L 262.174999472,53.9999997616 L 262.174999472,57.0999996662 L 272.224999431,57.0999996662 L 272.224999431,53.9999997616 L 282.654999396,53.9999997616 L 282.654999396,57.0999996662 L 289.699999452,57.0999996662 "
         style="stroke:#000000;stroke-width:1;fill:none"
         inkscape:label="part"
         id="path5080" />
      <path
         d="M 289.699999452,57.0999996662 L 289.699999452,65.3777270154 L 292.799999356,65.3777270154 L 292.799999356,77.040454274 L 289.699999452,77.040454274 L 289.699999452,88.3231815261 L 292.799999356,88.3231815261 L 292.799999356,99.9859087847 L 289.699999452,99.9859087847 L 289.699999452,111.268636037 L 292.799999356,111.268636037 L 292.799999356,122.931363296 L 289.699999452,122.931363296 L 289.699999452,134.214090548 L 292.799999356,134.214090548 L 292.799999356,145.876817806 L 289.699999452,145.876817806 L 289.699999452,157.159545058 L 292.799999356,157.159545058 L 292.799999356,168.822272317 L 289.699999452,168.822272317 L 289.699999452,177.099999666 "
         style="stroke:#000000;stroke-width:1;fill:none"
         inkscape:label="part"
         id="path5082" />
      <path
         d="M 289.699999452,177.099999666 L 282.654999396,177.099999666 L 282.654999396,180.199999571 L 272.224999431,180.199999571 L 272.224999431,177.099999666 L 262.174999472,177.099999666 L 262.174999472,180.199999571 L 251.744999507,180.199999571 L 251.744999507,177.099999666 L 244.699999452,177.099999666 "
         style="stroke:#000000;stroke-width:1;fill:none"
         inkscape:label="part"
         id="path5084" />
      <path
         d="M 244.699999452,177.099999666 L 244.699999452,168.822272317 L 241.599999547,168.822272317 L 241.599999547,157.159545058 L 244.699999452,157.159545058 L 244.699999452,145.876817806 L 241.599999547,145.876817806 L 241.599999547,134.214090548 L 244.699999452,134.214090548 L 244.699999452,122.931363296 L 241.599999547,122.931363296 L 241.599999547,111.268636037 L 244.699999452,111.268636037 L 244.699999452,99.9859087847 L 241.599999547,99.9859087847 L 241.599999547,88.3231815261 L 244.699999452,88.3231815261 L 244.699999452,77.040454274 L 241.599999547,77.040454274 L 241.599999547,65.3777270154 L 244.699999452,65.3777270154 L 244.699999452,57.0999996662 "
         style="stroke:#000000;stroke-width:1;fill:none"
         inkscape:label="part"
         id="path5086" />
    </g>
    <g
       id="g5137">
      <path
         d="M 294.199999332,53.9999997616 L 305.247940499,53.9999997616 L 305.247940499,57.0999996662 L 316.010881661,57.0999996662 L 316.010881661,53.9999997616 L 327.15382283,53.9999997616 L 327.15382283,57.0999996662 L 337.916763992,57.0999996662 L 337.916763992,53.9999997616 L 349.05970516,53.9999997616 L 349.05970516,57.0999996662 L 359.822646322,57.0999996662 L 359.822646322,53.9999997616 L 370.965587491,53.9999997616 L 370.965587491,57.0999996662 L 381.728528653,57.0999996662 L 381.728528653,53.9999997616 L 392.871469821,53.9999997616 L 392.871469821,57.0999996662 L 403.634410983,57.0999996662 L 403.634410983,53.9999997616 L 414.777352152,53.9999997616 L 414.777352152,57.0999996662 L 425.540293314,57.0999996662 L 425.540293314,53.9999997616 L 436.683234482,53.9999997616 L 436.683234482,57.0999996662 L 447.446175644,57.0999996662 L 447.446175644,53.9999997616 L 458.589116813,53.9999997616 L 458.589116813,57.0999996662 L 469.352057975,57.0999996662 L 469.352057975,53.9999997616 L 480.399999142,53.9999997616 "
         style="stroke:#000000;stroke-width:1;fill:none"
         inkscape:label="part"
         id="path5088" />
      <path
         d="m 480.4,54 v 11.567727 h -3.1 v 11.282727 h 3.1 c 12.25858,6.3336 0,11.662728 0,11.662728 h -3.1 v 11.282727 h 3.1 v 11.662731 h -3.1 v 11.28272 h 3.1 c 12.05427,6.3336 0,11.66273 0,11.66273 h -3.1 v 11.28273 h 3.1 v 11.66273 h -3.1 v 11.28272 h 3.1 V 180.2"
         style="fill:none;stroke:#000000;stroke-width:1"
         inkscape:label="part"
         id="path5090"
         inkscape:connector-curvature="0"
         sodipodi:nodetypes="cccccccccccccccccccccc" />
      <path
         d="M 480.399999142,180.199999571 L 469.352057975,180.199999571 L 469.352057975,177.099999666 L 458.589116813,177.099999666 L 458.589116813,180.199999571 L 447.446175644,180.199999571 L 447.446175644,177.099999666 L 436.683234482,177.099999666 L 436.683234482,180.199999571 L 425.540293314,180.199999571 L 425.540293314,177.099999666 L 414.777352152,177.099999666 L 414.777352152,180.199999571 L 403.634410983,180.199999571 L 403.634410983,177.099999666 L 392.871469821,177.099999666 L 392.871469821,180.199999571 L 381.728528653,180.199999571 L 381.728528653,177.099999666 L 370.965587491,177.099999666 L 370.965587491,180.199999571 L 359.822646322,180.199999571 L 359.822646322,177.099999666 L 349.05970516,177.099999666 L 349.05970516,180.199999571 L 337.916763992,180.199999571 L 337.916763992,177.099999666 L 327.15382283,177.099999666 L 327.15382283,180.199999571 L 316.010881661,180.199999571 L 316.010881661,177.099999666 L 305.247940499,177.099999666 L 305.247940499,180.199999571 L 294.199999332,180.199999571 "
         style="stroke:#000000;stroke-width:1;fill:none"
         inkscape:label="part"
         id="path5092" />
      <path
         d="M 294.199999332,180.199999571 L 294.199999332,168.632272314 L 297.299999237,168.632272314 L 297.299999237,157.349545062 L 294.199999332,157.349545062 L 294.199999332,145.686817803 L 297.299999237,145.686817803 L 297.299999237,134.404090551 L 294.199999332,134.404090551 L 294.199999332,122.741363292 L 297.299999237,122.741363292 L 297.299999237,111.45863604 L 294.199999332,111.45863604 L 294.199999332,99.7959087815 L 297.299999237,99.7959087815 L 297.299999237,88.5131815293 L 294.199999332,88.5131815293 L 294.199999332,76.8504542708 L 297.299999237,76.8504542708 L 297.299999237,65.5677270186 L 294.199999332,65.5677270186 L 294.199999332,53.9999997616 "
         style="stroke:#000000;stroke-width:1;fill:none"
         inkscape:label="part"
         id="path5094" />
    </g>
    <g
       id="g5155">
      <path
         d="M 53.9999997616,4.49999988079 L 64.8579409252,4.49999988079 L 64.8579409252,1.39999997616 L 76.0008820937,1.39999997616 L 76.0008820937,4.49999988079 L 86.7638232557,4.49999988079 L 86.7638232557,1.39999997616 L 97.9067644242,1.39999997616 L 97.9067644242,4.49999988079 L 108.669705586,4.49999988079 L 108.669705586,1.39999997616 L 119.812646755,1.39999997616 L 119.812646755,4.49999988079 L 130.575587917,4.49999988079 L 130.575587917,1.39999997616 L 141.718529085,1.39999997616 L 141.718529085,4.49999988079 L 152.481470247,4.49999988079 L 152.481470247,1.39999997616 L 163.624411416,1.39999997616 L 163.624411416,4.49999988079 L 174.387352578,4.49999988079 L 174.387352578,1.39999997616 L 185.530293746,1.39999997616 L 185.530293746,4.49999988079 L 196.293234908,4.49999988079 L 196.293234908,1.39999997616 L 207.436176077,1.39999997616 L 207.436176077,4.49999988079 L 218.199117239,4.49999988079 L 218.199117239,1.39999997616 L 229.342058407,1.39999997616 L 229.342058407,4.49999988079 L 240.199999571,4.49999988079 "
         style="stroke:#000000;stroke-width:1;fill:none"
         inkscape:label="part"
         id="path5096" />
      <path
         d="M 240.199999571,4.49999988079 L 240.199999571,11.7349999396 L 237.099999666,11.7349999396 L 237.099999666,21.7849998983 L 240.199999571,21.7849998983 L 240.199999571,32.2149998633 L 237.099999666,32.2149998633 L 237.099999666,42.264999822 L 240.199999571,42.264999822 L 240.199999571,49.4999998808 "
         style="stroke:#000000;stroke-width:1;fill:none"
         inkscape:label="part"
         id="path5098" />
      <path
         d="M 240.199999571,49.4999998808 L 229.342058407,49.4999998808 L 229.342058407,52.5999997854 L 218.199117239,52.5999997854 L 218.199117239,49.4999998808 L 207.436176077,49.4999998808 L 207.436176077,52.5999997854 L 196.293234908,52.5999997854 L 196.293234908,49.4999998808 L 185.530293746,49.4999998808 L 185.530293746,52.5999997854 L 174.387352578,52.5999997854 L 174.387352578,49.4999998808 L 163.624411416,49.4999998808 L 163.624411416,52.5999997854 L 152.481470247,52.5999997854 L 152.481470247,49.4999998808 L 141.718529085,49.4999998808 L 141.718529085,52.5999997854 L 130.575587917,52.5999997854 L 130.575587917,49.4999998808 L 119.812646755,49.4999998808 L 119.812646755,52.5999997854 L 108.669705586,52.5999997854 L 108.669705586,49.4999998808 L 97.9067644242,49.4999998808 L 97.9067644242,52.5999997854 L 86.7638232557,52.5999997854 L 86.7638232557,49.4999998808 L 76.0008820937,49.4999998808 L 76.0008820937,52.5999997854 L 64.8579409252,52.5999997854 L 64.8579409252,49.4999998808 L 53.9999997616,49.4999998808 "
         style="stroke:#000000;stroke-width:1;fill:none"
         inkscape:label="part"
         id="path5100" />
      <path
         d="M 53.9999997616,49.4999998808 L 53.9999997616,42.264999822 L 57.0999996662,42.264999822 L 57.0999996662,32.2149998633 L 53.9999997616,32.2149998633 L 53.9999997616,21.7849998983 L 57.0999996662,21.7849998983 L 57.0999996662,11.7349999396 L 53.9999997616,11.7349999396 L 53.9999997616,4.49999988079 "
         style="stroke:#000000;stroke-width:1;fill:none"
         inkscape:label="part"
         id="path5102" />
    </g>
    <flowRoot
       xml:space="preserve"
       id="flowRoot5213"
       style="font-style:normal;font-weight:normal;font-size:40px;line-height:1.25;font-family:sans-serif;letter-spacing:0px;word-spacing:0px;fill:#000000;fill-opacity:1;stroke:none"><flowRegion
         id="flowRegion5215"><rect
           id="rect5217"
           width="229.23543"
           height="182.24422"
           x="306.05588"
           y="68.581802" /></flowRegion><flowPara
         id="flowPara5221" /></flowRoot>    <text
       xml:space="preserve"
       style="font-style:normal;font-weight:normal;font-size:40px;line-height:1.25;font-family:sans-serif;letter-spacing:0px;word-spacing:0px;fill:#000000;fill-opacity:1;stroke:none"
       x="279.49561"
       y="99.228249"
       id="text5227"><tspan
         sodipodi:role="line"
         x="279.49561"
         y="135.72147"
         id="tspan5229" /></text>
    <text
       xml:space="preserve"
       style="font-style:normal;font-weight:normal;font-size:40px;line-height:1.25;font-family:sans-serif;letter-spacing:0px;word-spacing:0px;fill:#000000;fill-opacity:1;stroke:none"
       x="581.46527"
       y="139.27293"
       id="text5357"><tspan
         sodipodi:role="line"
         id="tspan5355"
         x="581.46527"
         y="175.76614"></tspan></text>
    <g
       aria-label="steinsmuga"
       transform="matrix(0.4204686,0,0,0.4204686,304.26848,125.88805)"
       style="font-weight:300;font-size:120px;font-family:SegoeUI-Semilight, 'Segoe UI';fill:none;stroke:#ff0000;stroke-miterlimit:10;stroke-opacity:1;fill-opacity:1"
       id="text5392">
      <path
         inkscape:connector-curvature="0"
         d="M 6.5039062,-2.6367188 V -9.140625 q 3.0468751,2.6367188 7.3828128,4.1601563 4.335937,1.5234374 7.5,1.5234374 14.121093,0 14.121093,-11.5429687 0,-3.984375 -3.105468,-6.796875 -3.105469,-2.8125 -10.078125,-5.800781 -8.613281,-3.75 -12.128906,-7.734375 -3.4570318,-4.042969 -3.4570318,-9.785156 0,-7.324219 5.5664068,-11.835938 5.624999,-4.511719 13.828124,-4.511719 7.734375,0 13.242188,3.164063 v 6.09375 q -6.679688,-4.335938 -13.828125,-4.335938 -5.917969,0 -9.550781,3.105469 -3.632813,3.046875 -3.632813,7.96875 0,4.277344 2.285157,6.972656 2.285156,2.636719 10.078124,6.09375 9.375,4.21875 12.890625,7.851563 3.515625,3.574219 3.515625,9.550781 0,7.1484375 -5.390625,11.8359375 -5.332031,4.6289062 -14.765625,4.6289062 -8.671874,0 -14.4726558,-4.1015625 z"
         style="font-weight:300;font-size:120px;font-family:SegoeUI-Semilight, 'Segoe UI';fill:none;stroke:#ff0000;stroke-miterlimit:10;stroke-opacity:1;fill-opacity:1"
         id="path5942" />
      <path
         inkscape:connector-curvature="0"
         d="m 82.089844,-0.8203125 q -4.21875,1.9921875 -7.910157,1.9921875 -13.300781,0 -13.300781,-15.9375 v -40.3125 H 50.097656 V -60 h 10.78125 v -15.585937 q 1.289063,-0.46875 2.695313,-0.9375 1.40625,-0.410157 2.695312,-0.878907 V -60 h 15.820313 v 4.921875 H 66.269531 v 39.609375 q 0,6.2109375 1.933594,9.0234375 1.992187,2.7539062 6.679687,2.7539062 3.339844,0 7.207032,-2.1679687 z"
         style="letter-spacing:-0.01em;stroke:#ff0000;stroke-opacity:1;fill:none;fill-opacity:1"
         id="path5944" />
      <path
         inkscape:connector-curvature="0"
         d="m 96.858437,-29.765625 q 0,12.363281 5.683593,19.335937 5.74219,6.9726567 15.70313,6.9726567 10.07812,0 19.6875,-7.4414067 v 5.742188 q -9.31641,6.6210937 -20.80079,6.6210937 -11.60156,0 -18.749996,-8.3203124 -7.148437,-8.3203123 -7.148437,-23.4960933 0,-13.125 7.441406,-22.089844 7.499997,-9.023438 19.453127,-9.023438 11.1914,0 17.16797,7.851563 5.97656,7.851562 5.97656,21.445312 v 2.402344 z M 135.6475,-34.6875 q -0.35156,-10.371094 -4.98047,-16.113281 -4.62891,-5.742188 -12.77344,-5.742188 -8.4375,0 -14.0039,5.683594 -5.507816,5.625 -6.796878,16.171875 z"
         id="path5946"
         style="stroke:#ff0000;stroke-opacity:1;fill:none;fill-opacity:1" />
      <path
         inkscape:connector-curvature="0"
         d="m 158.90922,-75.117187 q -1.75781,0 -3.10547,-1.289063 -1.34766,-1.289062 -1.34766,-3.28125 0,-1.933594 1.34766,-3.105469 1.40625,-1.230468 3.10547,-1.230468 1.8164,0 3.16406,1.171875 1.40625,1.171875 1.40625,3.164062 0,1.875 -1.34766,3.222656 -1.34765,1.347657 -3.22265,1.347657 z M 156.2725,0 v -60 h 5.39062 V 0 Z"
         id="path5948"
         style="stroke:#ff0000;stroke-opacity:1;fill:none;fill-opacity:1" />
      <path
         inkscape:connector-curvature="0"
         d="m 221.66312,0 v -34.921875 q 0,-21.621094 -15.58593,-21.621094 -8.67188,0 -14.23828,6.386719 -5.56641,6.328125 -5.56641,15.703125 V 0 h -5.39063 v -60 h 5.39063 v 10.898438 h 0.23437 q 6.5625,-12.363282 20.50782,-12.363282 9.72656,0 14.88281,6.503907 5.15625,6.445312 5.15625,18.457031 V 0 Z"
         id="path5950"
         style="stroke:#ff0000;stroke-opacity:1;fill:none;fill-opacity:1" />
      <path
         inkscape:connector-curvature="0"
         d="m 6.5039062,65.363281 v -6.503906 q 3.0468751,2.636719 7.3828128,4.160156 4.335937,1.523438 7.5,1.523438 14.121093,0 14.121093,-11.542969 0,-3.984375 -3.105468,-6.796875 -3.105469,-2.8125 -10.078125,-5.800781 -8.613281,-3.75 -12.128906,-7.734375 Q 6.7382812,28.625 6.7382812,22.882812 q 0,-7.324218 5.5664068,-11.835937 5.624999,-4.5117188 13.828124,-4.5117188 7.734375,0 13.242188,3.1640626 v 6.0937502 q -6.679688,-4.335938 -13.828125,-4.335938 -5.917969,0 -9.550781,3.105469 -3.632813,3.046875 -3.632813,7.96875 0,4.277344 2.285157,6.972656 2.285156,2.636719 10.078124,6.09375 9.375,4.21875 12.890625,7.851563 3.515625,3.574218 3.515625,9.550781 0,7.148437 -5.390625,11.835937 -5.332031,4.628907 -14.765625,4.628907 -8.671874,0 -14.4726558,-4.101563 z"
         id="path5952"
         style="stroke:#ff0000;stroke-opacity:1;fill:none;fill-opacity:1" />
      <path
         inkscape:connector-curvature="0"
         d="M 131.48437,68 V 31.90625 q 0,-11.308594 -3.57421,-15.878906 -3.51563,-4.570313 -11.19141,-4.570313 -7.08984,0 -12.24609,6.09375 -5.156254,6.09375 -5.156254,15.292969 V 68 H 93.925781 V 31.496094 q 0,-20.039063 -15.234375,-20.039063 -7.324219,0 -12.1875,6.152344 -4.863281,6.09375 -4.863281,15.820312 V 68 H 56.25 V 8 h 5.390625 v 9.960937 H 61.875 Q 68.144531,6.5351562 80.214844,6.5351562 q 6.5625,0 11.191406,3.8085938 4.6875,3.75 6.328125,9.902344 2.812505,-6.503906 8.027345,-10.078125 5.27344,-3.6328128 11.42578,-3.6328128 19.6875,0 19.6875,24.3749998 V 68 Z"
         id="path5954"
         style="stroke:#ff0000;stroke-opacity:1;fill:none;fill-opacity:1" />
      <path
         inkscape:connector-curvature="0"
         d="M 194.53125,68 V 57.101562 h -0.23438 q -6.26953,12.363282 -19.33593,12.363282 -21.26953,0 -21.26953,-26.777344 V 8 h 5.44921 v 33.339844 q 0,12.1875 3.98438,17.695312 4.04297,5.507813 12.65625,5.507813 8.37891,0 13.53516,-6.152344 5.21484,-6.152344 5.21484,-16.40625 V 8 h 5.39062 v 60 z"
         id="path5956"
         style="stroke:#ff0000;stroke-opacity:1;fill:none;fill-opacity:1" />
      <path
         inkscape:connector-curvature="0"
         d="m 267.12891,63.546875 q 0,16.933594 -7.38282,24.785156 -7.38281,7.851563 -22.96875,7.851563 -8.67187,0 -17.87109,-4.570313 v -5.625 q 9.49219,5.273438 17.98828,5.273438 24.84375,0 24.84375,-26.25 V 57.21875 h -0.23437 q -7.08985,12.246094 -21.6211,12.246094 -11.07422,0 -18.10547,-8.027344 -6.97265,-8.027344 -6.97265,-22.382813 0,-14.355468 7.55859,-23.437499 7.55859,-9.0820318 19.92188,-9.0820318 13.24218,0 19.21875,10.9570308 h 0.23437 V 8 h 5.39063 z m -5.39063,-32.519531 q 0,-7.96875 -5.39062,-13.769532 -5.33204,-5.800781 -13.94532,-5.800781 -9.90234,0 -15.9375,7.441406 -6.03515,7.441407 -6.03515,19.6875 0,12.304688 5.50781,19.160157 5.56641,6.796875 14.64844,6.796875 9.66797,0 15.41015,-6.269532 5.74219,-6.269531 5.74219,-15.351562 z"
         id="path5958"
         style="stroke:#ff0000;stroke-opacity:1;fill:none;fill-opacity:1" />
      <path
         inkscape:connector-curvature="0"
         d="M 322.26562,68 V 55.988281 h -0.23437 q -2.87109,6.152344 -8.37891,9.84375 -5.44922,3.632813 -12.1289,3.632813 -8.55469,0 -13.53516,-4.804688 -4.98047,-4.804687 -4.98047,-12.128906 0,-15.703125 20.80078,-18.984375 l 18.45703,-2.753906 q 0,-19.335938 -14.53125,-19.335938 -9.90234,0 -19.27734,7.96875 v -6.503906 q 3.33984,-2.636719 9.02344,-4.5117187 5.74219,-1.8750001 10.78125,-1.8750001 9.25781,0 14.29687,5.7421878 5.09766,5.742187 5.09766,16.699218 V 68 Z M 305.74219,38.117187 q -9.4336,1.347657 -13.24219,4.394532 -3.80859,2.988281 -3.80859,9.785156 0,5.332031 3.51562,8.789062 3.57422,3.457032 9.90234,3.457032 8.67188,0 14.41407,-6.386719 5.74218,-6.445313 5.74218,-16.582031 v -5.859375 z"
         id="path5960"
         style="stroke:#ff0000;stroke-opacity:1;fill:none;fill-opacity:1" />
    </g>
  </g>
  <g
     id="g5105"
     inkscape:groupmode="layer"
     inkscape:label="newlayer" />
</svg>
