<?xml version="1.0" encoding="UTF-8" standalone="no"?>
<!-- Created with Inkscape (http://www.inkscape.org/) -->

<svg
   xmlns:dc="http://purl.org/dc/elements/1.1/"
   xmlns:cc="http://creativecommons.org/ns#"
   xmlns:rdf="http://www.w3.org/1999/02/22-rdf-syntax-ns#"
   xmlns:svg="http://www.w3.org/2000/svg"
   xmlns="http://www.w3.org/2000/svg"
   xmlns:sodipodi="http://sodipodi.sourceforge.net/DTD/sodipodi-0.dtd"
   xmlns:inkscape="http://www.inkscape.org/namespaces/inkscape"
   width="297"
   height="210"
   viewBox="0 0 297 210"
   version="1.1"
   id="svg8"
   inkscape:version="0.92.4 (5da689c313, 2019-01-14)"
   sodipodi:docname="logo.svg">
  <defs
     id="defs2">
    <inkscape:perspective
       sodipodi:type="inkscape:persp3d"
       inkscape:vp_x="-7.2973419 : 111.19426 : 1"
       inkscape:vp_y="0 : 1000 : 0"
       inkscape:vp_z="289.70266 : 111.19426 : 1"
       inkscape:persp3d-origin="141.20266 : 76.194256 : 1"
       id="perspective6449" />
  </defs>
  <sodipodi:namedview
     id="base"
     pagecolor="#ffffff"
     bordercolor="#666666"
     borderopacity="1.0"
     inkscape:pageopacity="0.0"
     inkscape:pageshadow="2"
     inkscape:zoom="4.1666667"
     inkscape:cx="76.806246"
     inkscape:cy="33.986764"
     inkscape:document-units="mm"
     inkscape:current-layer="layer1"
     showgrid="false"
     showguides="true"
     inkscape:window-width="1920"
     inkscape:window-height="1057"
     inkscape:window-x="-8"
     inkscape:window-y="-8"
     inkscape:window-maximized="1" />
  <metadata
     id="metadata5">
    <rdf:RDF>
      <cc:Work
         rdf:about="">
        <dc:format>image/svg+xml</dc:format>
        <dc:type
           rdf:resource="http://purl.org/dc/dcmitype/StillImage" />
        <dc:title></dc:title>
      </cc:Work>
    </rdf:RDF>
  </metadata>
  <g
     inkscape:label="Layer 1"
     inkscape:groupmode="layer"
     id="layer1"
     style="opacity:1"
     transform="translate(0,-87)">
    <path
       sodipodi:type="star"
       style="opacity:0.50199998;fill:#000000;stroke:#000000;stroke-width:17.45433807;stroke-miterlimit:4;stroke-dasharray:none;stroke-opacity:0.56422019"
       id="path6469"
       sodipodi:sides="3"
       sodipodi:cx="91.559998"
       sodipodi:cy="217.08002"
       sodipodi:r1="52.590813"
       sodipodi:r2="26.295406"
       sodipodi:arg1="-1.5707963"
       sodipodi:arg2="-0.52359878"
       inkscape:flatsided="false"
       inkscape:rounded="0"
       inkscape:randomized="0"
       d="m 91.559999,164.4892 22.772491,39.44311 22.77249,39.44311 -45.544982,0 -45.544981,0 22.772491,-39.44311 z"
       inkscape:transform-center-y="-7.4277084"
       transform="matrix(1.5137778,0,0,0.56494303,-44.521495,106.84217)"
       inkscape:transform-center-x="1.8264662e-06" />
    <flowRoot
       xml:space="preserve"
       id="flowRoot5772"
       style="font-style:normal;font-weight:normal;font-size:40px;line-height:1.25;font-family:sans-serif;letter-spacing:0px;word-spacing:0px;fill:#000000;fill-opacity:1;stroke:none"
       transform="translate(0,87)"><flowRegion
         id="flowRegion5774"
         style="fill:#000000"><rect
           id="rect5776"
           width="55"
           height="41.42857"
           x="74.64286"
           y="87.5"
           style="fill:#000000" /></flowRegion><flowPara
         id="flowPara5778">Sssserserserser</flowPara></flowRoot>    <g
       aria-label="SMUGA"
       style="font-style:normal;font-variant:normal;font-weight:normal;font-stretch:normal;font-size:19.1970005px;line-height:1.25;font-family:'Franklin Gothic Medium';-inkscape-font-specification:'Franklin Gothic Medium, Normal';font-variant-ligatures:normal;font-variant-caps:normal;font-variant-numeric:normal;font-feature-settings:normal;text-align:start;letter-spacing:0px;word-spacing:0px;writing-mode:lr-tb;text-anchor:start;fill:#000000;fill-opacity:1;stroke:none"
       id="text5811"
       transform="translate(-4.8125,-0.0625)">
      <path
         d="m 66.672762,238.02325 2.240275,-0.47805 q 0.403062,1.90283 3.093267,1.90283 1.227933,0 1.88408,-0.48742 0.665521,-0.48743 0.665521,-1.20919 0,-0.52492 -0.299953,-0.96547 -0.299953,-0.44993 -1.284174,-0.70302 l -2.446493,-0.6374 q -1.256054,-0.32807 -1.85596,-0.74051 -0.599906,-0.42181 -0.965474,-1.18106 -0.356194,-0.75926 -0.356194,-1.62162 0,-1.71536 1.2748,-2.74645 1.274801,-1.04046 3.261991,-1.04046 1.649742,0 2.94329,0.72176 1.302921,0.72176 1.659116,2.04343 l -2.193408,0.54367 q -0.506171,-1.4529 -2.362131,-1.4529 -1.077956,0 -1.649742,0.44993 -0.562412,0.44993 -0.562412,1.14357 0,1.0967 1.780972,1.53726 l 2.17466,0.54366 q 1.977816,0.4968 2.65271,1.47165 0.674895,0.96547 0.674895,2.13716 0,1.88408 -1.424777,2.97141 -1.415404,1.07796 -3.674426,1.07796 -1.902828,0 -3.336979,-0.79675 -1.424777,-0.79675 -1.893454,-2.48399 z"
         id="path6394"
         inkscape:connector-curvature="0" />
      <path
         d="m 91.550125,241.10715 h -1.176379 -1.176378 v -5.60069 -5.60069 c 0,0 -0.827513,4.61767 -1.418046,6.48457 -0.590532,1.8669 -1.914214,4.74806 -1.914214,4.74806 h -0.62803 -0.604593 l -1.968472,-4.57128 c -0.774801,-1.79928 -1.780971,-6.66135 -1.780971,-6.66135 v 5.60069 5.60069 h -0.942041 -0.94204 v -6.39744 -6.39744 h 1.804405 1.804406 l 1.340415,4.11967 1.340416,4.11967 1.316982,-4.11967 1.316982,-4.11967 h 1.813779 1.813779 v 6.39744 z"
         id="path6396"
         inkscape:connector-curvature="0"
         sodipodi:nodetypes="cccccscccsccccccccccccccccc" />
      <path
         d="m 103.15456,228.31227 v 1.49829 c 0,1.77422 -0.12498,3.13976 -0.37494,4.09664 -0.24996,0.95689 -0.73426,1.78419 -1.4529,2.48192 -0.71239,0.68775 -1.584125,1.03162 -2.615214,1.03162 -1.043587,0 -1.902828,-0.29902 -2.577723,-0.89707 -0.668645,-0.59804 -1.14982,-1.41538 -1.443524,-2.452 -0.293704,-1.04659 -0.440556,-2.37724 -0.440556,-3.99197 v -1.76743 h 2.352757 v 8.51936 c 0,1.79414 0.234338,2.97529 0.703015,3.54345 0.474926,0.55817 1.02484,0.83727 1.649743,0.83727 0.718635,0 1.293542,-0.29902 1.724732,-0.89707 0.43118,-0.60803 0.64677,-1.76924 0.64677,-3.48365 v -8.51936 z"
         id="path6398"
         inkscape:connector-curvature="0"
         sodipodi:nodetypes="csscsccsccscscscc"
         style="stroke-width:1.26295221" />
      <path
         d="m 115.51825,234.56442 v 6.54273 h -1.02171 l -0.70302,-1.72473 q -1.11545,1.92157 -3.45883,1.92157 -2.61522,0 -3.90877,-1.98719 -1.28417,-1.98719 -1.28417,-4.6024 0,-2.7652 1.43415,-4.6774 1.44353,-1.92157 4.03062,-1.92157 1.93095,0 3.17763,1.12482 1.24668,1.11545 1.57475,2.78394 l -2.00593,0.3562 q -0.56241,-2.34339 -2.69021,-2.34339 -1.35916,0 -2.22152,1.10608 -0.853,1.10608 -0.853,3.40259 0,4.84612 3.03703,4.84612 1.18106,0 1.94969,-0.8155 0.77801,-0.81549 0.77801,-2.15591 h -2.64334 v -1.85596 z"
         id="path6400"
         inkscape:connector-curvature="0" />
      <path
         d="m 128.1819,241.10715 h -2.26637 c -0.71969,-2.78945 0.0221,-9.78901 -3.46017,-12.83541 -3.46352,3.0464 -2.66841,10.34218 -3.48562,12.82436 l -2.16731,0.011 4.24621,-12.79488 h 2.84018 z m -4.10561,-4.89299 -1.86533,-5.70848 -1.86534,5.70848 z"
         id="path6402"
         inkscape:connector-curvature="0"
         sodipodi:nodetypes="cccccccccccc" />
    </g>
    <g
       transform="matrix(1,0,0,1.5061304,101.45969,-142.421)"
       id="g6415"
       style="font-style:normal;font-variant:normal;font-weight:normal;font-stretch:normal;font-size:15.19699955px;line-height:1.25;font-family:'Franklin Gothic Medium';-inkscape-font-specification:'Franklin Gothic Medium, Normal';font-variant-ligatures:normal;font-variant-caps:normal;font-variant-numeric:normal;font-feature-settings:normal;text-align:start;letter-spacing:0px;word-spacing:0px;writing-mode:lr-tb;text-anchor:start;fill:#000000;fill-opacity:1;stroke:none;stroke-width:0.47991505"
       aria-label="STEIN">
      <path
         inkscape:connector-curvature="0"
         id="path6407"
         style="font-style:normal;font-variant:normal;font-weight:normal;font-stretch:normal;font-size:15.19699955px;font-family:'Franklin Gothic Medium';-inkscape-font-specification:'Franklin Gothic Medium, Normal';font-variant-ligatures:normal;font-variant-caps:normal;font-variant-numeric:normal;font-feature-settings:normal;text-align:start;writing-mode:lr-tb;text-anchor:start;stroke-width:0.47991505"
         d="M 89.978338,226.0649 H 88.01935 v -8.56316 h -2.693609 v -1.5657 h 7.346206 v 1.5657 h -2.693609 z" />
      <path
         sodipodi:nodetypes="cccccccccccccc"
         inkscape:connector-curvature="0"
         id="path6409"
         style="font-style:normal;font-variant:normal;font-weight:normal;font-stretch:normal;font-size:15.19699955px;font-family:'Franklin Gothic Medium';-inkscape-font-specification:'Franklin Gothic Medium, Normal';font-variant-ligatures:normal;font-variant-caps:normal;font-variant-numeric:normal;font-feature-settings:normal;text-align:start;writing-mode:lr-tb;text-anchor:start;stroke-width:0.47991505"
         d="m 100.38175,226.0649 h -6.581902 v -10.12886 h 6.515122 v 1.50634 h -4.689701 v 1.37277 1.37278 h 3.769568 v 1.46924 h -3.769568 v 2.8346 h 4.756481 z" />
      <path
         sodipodi:nodetypes="cccscccsc"
         inkscape:connector-curvature="0"
         id="path6411"
         style="font-style:normal;font-variant:normal;font-weight:normal;font-stretch:normal;font-size:15.19699955px;font-family:'Franklin Gothic Medium';-inkscape-font-specification:'Franklin Gothic Medium, Normal';font-variant-ligatures:normal;font-variant-caps:normal;font-variant-numeric:normal;font-feature-settings:normal;text-align:start;writing-mode:lr-tb;text-anchor:start;stroke-width:0.47991505"
         d="m 103.78772,226.0649 h -0.91271 -0.91271 c 0,0 -0.46875,-3.3743 -0.46875,-5.06443 0,-1.69013 0.46875,-5.06443 0.46875,-5.06443 h 0.91271 0.91271 c 0,0 0.44643,3.37629 0.44643,5.06443 0,1.68814 -0.44643,5.06443 -0.44643,5.06443 z" />
      <path
         inkscape:connector-curvature="0"
         id="path6413"
         style="font-style:normal;font-variant:normal;font-weight:normal;font-stretch:normal;font-size:15.19699955px;font-family:'Franklin Gothic Medium';-inkscape-font-specification:'Franklin Gothic Medium, Normal';font-variant-ligatures:normal;font-variant-caps:normal;font-variant-numeric:normal;font-feature-settings:normal;text-align:start;writing-mode:lr-tb;text-anchor:start;stroke-width:0.47991505"
         d="m 113.67913,226.0649 h -1.77348 l -3.84377,-6.4706 q -0.0891,-0.14841 -0.2894,-0.48233 -0.089,-0.14841 -0.27455,-0.46748 v 7.42041 h -1.46925 v -10.12886 h 2.01836 l 3.54695,5.96601 q 0.0445,0.0742 0.64558,1.0908 v -7.05681 h 1.43956 z" />
    </g>
    <g
       id="g6429"
       style="font-style:normal;font-variant:normal;font-weight:normal;font-stretch:normal;font-size:19.1970005px;line-height:1.25;font-family:'Franklin Gothic Medium';-inkscape-font-specification:'Franklin Gothic Medium, Normal';font-variant-ligatures:normal;font-variant-caps:normal;font-variant-numeric:normal;font-feature-settings:normal;text-align:start;letter-spacing:0px;word-spacing:0px;writing-mode:lr-tb;text-anchor:start;fill:#000000;fill-opacity:1;stroke:none"
       aria-label="SMUGA"
       transform="translate(91.25,-30.25)">
      <path
         id="path6417"
         d="m 66.672762,238.02325 2.240275,-0.47805 q 0.403062,1.90283 3.093267,1.90283 1.227933,0 1.88408,-0.48742 0.665521,-0.48743 0.665521,-1.20919 0,-0.52492 -0.299953,-0.96547 -0.299953,-0.44993 -1.284174,-0.70302 l -2.446493,-0.6374 q -1.256054,-0.32807 -1.85596,-0.74051 -0.599906,-0.42181 -0.965474,-1.18106 -0.356194,-0.75926 -0.356194,-1.62162 0,-1.71536 1.2748,-2.74645 1.274801,-1.04046 3.261991,-1.04046 1.649742,0 2.94329,0.72176 1.302921,0.72176 1.659116,2.04343 l -2.193408,0.54367 q -0.506171,-1.4529 -2.362131,-1.4529 -1.077956,0 -1.649742,0.44993 -0.562412,0.44993 -0.562412,1.14357 0,1.0967 1.780972,1.53726 l 2.17466,0.54366 q 1.977816,0.4968 2.65271,1.47165 0.674895,0.96547 0.674895,2.13716 0,1.88408 -1.424777,2.97141 -1.415404,1.07796 -3.674426,1.07796 -1.902828,0 -3.336979,-0.79675 -1.424777,-0.79675 -1.893454,-2.48399 z"
         inkscape:connector-curvature="0" />
      <path
         sodipodi:nodetypes="cccccscccsccccccccccccccccc"
         inkscape:connector-curvature="0"
         id="path6419"
         d="m 91.550125,241.10715 h -1.176379 -1.176378 v -5.60069 -5.60069 c 0,0 -0.827513,4.61767 -1.418046,6.48457 -0.590532,1.8669 -1.914214,4.74806 -1.914214,4.74806 h -0.62803 -0.604593 l -1.968472,-4.57128 c -0.774801,-1.79928 -1.780971,-6.66135 -1.780971,-6.66135 v 5.60069 5.60069 h -0.942041 -0.94204 v -6.39744 -6.39744 h 1.804405 1.804406 l 1.340415,4.11967 1.340416,4.11967 1.316982,-4.11967 1.316982,-4.11967 h 1.813779 1.813779 v 6.39744 z" />
      <path
         style="stroke-width:1.26295221"
         sodipodi:nodetypes="csscsccsccscscscc"
         inkscape:connector-curvature="0"
         id="path6421"
         d="m 103.15456,228.31227 v 1.49829 c 0,1.77422 -0.12498,3.13976 -0.37494,4.09664 -0.24996,0.95689 -0.73426,1.78419 -1.4529,2.48192 -0.71239,0.68775 -1.584125,1.03162 -2.615214,1.03162 -1.043587,0 -1.902828,-0.29902 -2.577723,-0.89707 -0.668645,-0.59804 -1.14982,-1.41538 -1.443524,-2.452 -0.293704,-1.04659 -0.440556,-2.37724 -0.440556,-3.99197 v -1.76743 h 2.352757 v 8.51936 c 0,1.79414 0.234338,2.97529 0.703015,3.54345 0.474926,0.55817 1.02484,0.83727 1.649743,0.83727 0.718635,0 1.293542,-0.29902 1.724732,-0.89707 0.43118,-0.60803 0.64677,-1.76924 0.64677,-3.48365 v -8.51936 z" />
      <path
         id="path6423"
         d="m 115.51825,234.56442 v 6.54273 h -1.02171 l -0.70302,-1.72473 q -1.11545,1.92157 -3.45883,1.92157 -2.61522,0 -3.90877,-1.98719 -1.28417,-1.98719 -1.28417,-4.6024 0,-2.7652 1.43415,-4.6774 1.44353,-1.92157 4.03062,-1.92157 1.93095,0 3.17763,1.12482 1.24668,1.11545 1.57475,2.78394 l -2.00593,0.3562 q -0.56241,-2.34339 -2.69021,-2.34339 -1.35916,0 -2.22152,1.10608 -0.853,1.10608 -0.853,3.40259 0,4.84612 3.03703,4.84612 1.18106,0 1.94969,-0.8155 0.77801,-0.81549 0.77801,-2.15591 h -2.64334 v -1.85596 z"
         inkscape:connector-curvature="0" />
      <path
         sodipodi:nodetypes="cccccccccccc"
         inkscape:connector-curvature="0"
         id="path6425"
         d="m 128.1819,241.10715 h -2.26637 c -0.71969,-2.78945 0.0221,-9.78901 -3.46017,-12.83541 -3.46352,3.0464 -2.66841,10.34218 -3.48562,12.82436 l -2.16731,0.011 4.24621,-12.79488 h 2.84018 z m -4.10561,-4.89299 -1.86533,-5.70848 -1.86534,5.70848 z" />
      <path
         sodipodi:nodetypes="ssasasacccscsccccscscscssass"
         style="stroke-width:1.09204781"
         inkscape:connector-curvature="0"
         d="m 67.676056,222.59189 2.176581,-0.58681 c 1.524415,-0.41098 1.821115,1.88028 3.005309,2.33567 5.932961,2.28155 18.591605,1.79906 19.01801,1.40171 0.429658,-0.40038 0.600854,-0.94653 0.646595,-1.48425 0.03448,-0.40533 -0.09873,-0.82372 -0.29142,-1.18508 -0.195877,-0.36734 -12.388862,-1.40873 -18.435157,-2.86293 -0.811003,-0.19506 -2.376935,-0.78239 -2.376935,-0.78239 -0.813563,-0.26847 -1.414628,-0.57146 -1.803197,-0.90896 -0.388561,-0.34517 -0.701233,-0.8284 -0.938016,-1.44971 -0.230705,-0.62132 -0.346058,-1.28482 -0.346058,-1.9905 0,-1.40371 0.412851,-2.52743 1.238552,-3.37118 0.825702,-0.85142 1.882113,-1.27713 3.169234,-1.27713 1.068555,0 19.209256,2.29531 20.047105,2.88593 0.843919,0.59063 1.381231,1.42672 1.611936,2.50825 0,0 0.340933,3.87503 -1.206142,2.42741 -0.817171,-1.14579 0.54878,-2.00305 -0.922212,-2.69932 -2.138058,-1.17752 -18.28303,-2.84413 -19.485153,-2.84413 -0.698202,0 -1.232479,0.18409 -1.602832,0.55226 -0.364283,0.36819 -0.546424,0.83609 -0.546424,1.40371 0,0.89744 0.57678,1.52642 1.730339,1.88693 l 19.300327,2.66733 c 1.33136,0.184 2.140143,1.00868 2.577276,1.8064 0.437141,0.79007 0.655712,1.6645 0.655712,2.62331 0,1.54177 -0.460977,2.758 -1.384269,3.6473 -0.916323,0.88258 -13.926145,0.44513 -20.757454,-0.67682 -1.113869,-0.18294 -2.314177,-0.32456 -3.24208,-0.97798 -0.923852,-0.65056 -3.204561,-2.68103 -1.839627,-3.04902 z"
         id="path6427" />
    </g>
    <g
       aria-label="STEIN"
       style="font-style:normal;font-variant:normal;font-weight:normal;font-stretch:normal;font-size:8.00559998px;line-height:1.25;font-family:'Franklin Gothic Medium';-inkscape-font-specification:'Franklin Gothic Medium, Normal';font-variant-ligatures:normal;font-variant-caps:normal;font-variant-numeric:normal;font-feature-settings:normal;text-align:start;letter-spacing:0px;word-spacing:0px;writing-mode:lr-tb;text-anchor:start;fill:#000000;fill-opacity:1;stroke:none;stroke-width:4.00280428"
       id="text6433">
      <path
         d="m 64.774865,225.59547 0.934247,-0.19935 q 0.168086,0.79352 1.289965,0.79352 0.512077,0 0.785706,-0.20327 0.277538,-0.20326 0.277538,-0.50426 0,-0.2189 -0.125088,-0.40262 -0.125087,-0.18763 -0.535531,-0.29317 l -1.020245,-0.26582 q -0.523804,-0.13681 -0.773979,-0.30881 -0.250175,-0.1759 -0.402625,-0.49253 -0.148541,-0.31663 -0.148541,-0.67625 0,-0.71535 0.531622,-1.14533 0.531621,-0.4339 1.360326,-0.4339 0.687981,0 1.227421,0.30099 0.543349,0.30099 0.69189,0.85216 l -0.914702,0.22672 q -0.211085,-0.60589 -0.985064,-0.60589 -0.449533,0 -0.687981,0.18763 -0.234539,0.18763 -0.234539,0.47689 0,0.45736 0.742707,0.64108 l 0.906884,0.22672 q 0.824796,0.20718 1.106243,0.61371 0.281447,0.40263 0.281447,0.89125 0,0.7857 -0.594166,1.23915 -0.590257,0.44953 -1.532322,0.44953 -0.793524,0 -1.391598,-0.33226 -0.594166,-0.33227 -0.789615,-1.03589 z"
         style="font-style:normal;font-variant:normal;font-weight:normal;font-stretch:normal;font-size:8.00559998px;font-family:'Franklin Gothic Medium';-inkscape-font-specification:'Franklin Gothic Medium, Normal';font-variant-ligatures:normal;font-variant-caps:normal;font-variant-numeric:normal;font-feature-settings:normal;text-align:start;writing-mode:lr-tb;text-anchor:start;stroke-width:4.00280428"
         id="path6435"
         inkscape:connector-curvature="0" />
      <path
         d="m 81.071149,226.88153 h -1.031972 v -4.51097 h -1.418961 v -0.82479 h 3.869894 v 0.82479 h -1.418961 z"
         style="font-style:normal;font-variant:normal;font-weight:normal;font-stretch:normal;font-size:8.00559998px;font-family:'Franklin Gothic Medium';-inkscape-font-specification:'Franklin Gothic Medium, Normal';font-variant-ligatures:normal;font-variant-caps:normal;font-variant-numeric:normal;font-feature-settings:normal;text-align:start;writing-mode:lr-tb;text-anchor:start;stroke-width:4.00280428"
         id="path6437"
         inkscape:connector-curvature="0" />
      <path
         d="M 98.388512,226.88153 H 89.40581 v -5.33576 h 8.891558 v 0.79352 h -7.660302 v 1.44633 h 4.694546 v 0.77397 l -4.694546,0 v 1.49324 h 7.751446 z"
         style="font-style:normal;font-variant:normal;font-weight:normal;font-stretch:normal;font-size:8.00559998px;font-family:'Franklin Gothic Medium';-inkscape-font-specification:'Franklin Gothic Medium, Normal';font-variant-ligatures:normal;font-variant-caps:normal;font-variant-numeric:normal;font-feature-settings:normal;text-align:start;writing-mode:lr-tb;text-anchor:start;stroke-width:6.44279194"
         id="path6439"
         inkscape:connector-curvature="0"
         sodipodi:nodetypes="ccccccccccccc" />
      <path
         d="m 106.41942,226.88153 h -0.96161 v -5.33576 h 0.96161 z"
         style="font-style:normal;font-variant:normal;font-weight:normal;font-stretch:normal;font-size:8.00559998px;font-family:'Franklin Gothic Medium';-inkscape-font-specification:'Franklin Gothic Medium, Normal';font-variant-ligatures:normal;font-variant-caps:normal;font-variant-numeric:normal;font-feature-settings:normal;text-align:start;writing-mode:lr-tb;text-anchor:start;stroke-width:4.00280428"
         id="path6441"
         inkscape:connector-curvature="0" />
      <path
         d="m 119.15111,226.88153 h -0.71171 l -1.54252,-3.4761 q -0.0357,-0.0798 -0.11614,-0.25912 -0.0357,-0.0798 -0.11019,-0.25114 v 3.98636 h -0.5896 v -5.44139 h 0.80997 l 1.42341,3.20504 q 0.0179,0.0399 0.25908,0.58599 v -3.79103 h 0.5777 z"
         style="font-style:normal;font-variant:normal;font-weight:normal;font-stretch:normal;font-size:8.00559998px;font-family:'Franklin Gothic Medium';-inkscape-font-specification:'Franklin Gothic Medium, Normal';font-variant-ligatures:normal;font-variant-caps:normal;font-variant-numeric:normal;font-feature-settings:normal;text-align:start;writing-mode:lr-tb;text-anchor:start;stroke-width:3.52809525"
         id="path6443"
         inkscape:connector-curvature="0" />
    </g>
  </g>
</svg>
